<svg height="2830" width="720" xmlns="http://www.w3.org/2000/svg">
<rect height="2830" fill="#555" width="720"></rect>
<text fill="#7f7" font-family="Courier New" font-size="12" xml:space="preserve">
<tspan x="10" y="26">17 megabytes installed</tspan>
<tspan x="10" y="42"></tspan>
<tspan x="10" y="58">node_modules</tspan>
<tspan x="10" y="74">└─┬ bean-io@0.3.2 </tspan>
<tspan x="10" y="90">  ├── bean-serial@0.2.1 </tspan>
<tspan x="10" y="106">  ├─┬ ble-bean@2.1.1 </tspan>
<tspan x="10" y="122">  │ ├── crc@2.1.1 </tspan>
<tspan x="10" y="138">  │ ├─┬ noble@1.8.1 </tspan>
<tspan x="10" y="154">  │ │ ├── bluetooth-hci-socket@0.5.1 </tspan>
<tspan x="10" y="170">  │ │ ├── bplist-parser@0.0.6 </tspan>
<tspan x="10" y="186">  │ │ └─┬ debug@2.2.0 </tspan>
<tspan x="10" y="202">  │ │   └── ms@0.7.1 </tspan>
<tspan x="10" y="218">  │ └── noble-device@1.4.1 </tspan>
<tspan x="10" y="234">  └─┬ firmata@0.4.1 </tspan>
<tspan x="10" y="250">    ├── browser-serialport@2.1.0 </tspan>
<tspan x="10" y="266">    ├─┬ es6-map@0.1.5 </tspan>
<tspan x="10" y="282">    │ ├── d@1.0.0 </tspan>
<tspan x="10" y="298">    │ ├── es5-ext@0.10.15 </tspan>
<tspan x="10" y="314">    │ ├── es6-iterator@2.0.1 </tspan>
<tspan x="10" y="330">    │ ├── es6-set@0.1.5 </tspan>
<tspan x="10" y="346">    │ ├── es6-symbol@3.1.1 </tspan>
<tspan x="10" y="362">    │ └── event-emitter@0.3.5 </tspan>
<tspan x="10" y="378">    ├── object-assign@1.0.0 </tspan>
<tspan x="10" y="394">    └─┬ serialport@4.0.7 </tspan>
<tspan x="10" y="410">      ├── bindings@1.2.1 </tspan>
<tspan x="10" y="426">      ├─┬ commander@2.9.0 </tspan>
<tspan x="10" y="442">      │ └── graceful-readlink@1.0.1 </tspan>
<tspan x="10" y="458">      ├─┬ debug@2.6.4 </tspan>
<tspan x="10" y="474">      │ └── ms@0.7.3 </tspan>
<tspan x="10" y="490">      ├─┬ lie@3.1.1 </tspan>
<tspan x="10" y="506">      │ └── immediate@3.0.6 </tspan>
<tspan x="10" y="522">      ├── nan@2.6.2 </tspan>
<tspan x="10" y="538">      ├─┬ node-pre-gyp@0.6.32 </tspan>
<tspan x="10" y="554">      │ ├─┬ mkdirp@0.5.1 </tspan>
<tspan x="10" y="570">      │ │ └── minimist@0.0.8 </tspan>
<tspan x="10" y="586">      │ ├─┬ nopt@3.0.6 </tspan>
<tspan x="10" y="602">      │ │ └── abbrev@1.0.9 </tspan>
<tspan x="10" y="618">      │ ├─┬ npmlog@4.0.1 </tspan>
<tspan x="10" y="634">      │ │ ├─┬ are-we-there-yet@1.1.2 </tspan>
<tspan x="10" y="650">      │ │ │ ├── delegates@1.0.0 </tspan>
<tspan x="10" y="666">      │ │ │ └─┬ readable-stream@2.2.2 </tspan>
<tspan x="10" y="682">      │ │ │   ├── buffer-shims@1.0.0 </tspan>
<tspan x="10" y="698">      │ │ │   ├── core-util-is@1.0.2 </tspan>
<tspan x="10" y="714">      │ │ │   ├── inherits@2.0.3 </tspan>
<tspan x="10" y="730">      │ │ │   ├── isarray@1.0.0 </tspan>
<tspan x="10" y="746">      │ │ │   ├── process-nextick-args@1.0.7 </tspan>
<tspan x="10" y="762">      │ │ │   ├── string_decoder@0.10.31 </tspan>
<tspan x="10" y="778">      │ │ │   └── util-deprecate@1.0.2 </tspan>
<tspan x="10" y="794">      │ │ ├── console-control-strings@1.1.0 </tspan>
<tspan x="10" y="810">      │ │ ├─┬ gauge@2.7.2 </tspan>
<tspan x="10" y="826">      │ │ │ ├── aproba@1.0.4 </tspan>
<tspan x="10" y="842">      │ │ │ ├── has-unicode@2.0.1 </tspan>
<tspan x="10" y="858">      │ │ │ ├── object-assign@4.1.0 </tspan>
<tspan x="10" y="874">      │ │ │ ├── signal-exit@3.0.2 </tspan>
<tspan x="10" y="890">      │ │ │ ├─┬ string-width@1.0.2 </tspan>
<tspan x="10" y="906">      │ │ │ │ ├── code-point-at@1.1.0 </tspan>
<tspan x="10" y="922">      │ │ │ │ └─┬ is-fullwidth-code-point@1.0.0 </tspan>
<tspan x="10" y="938">      │ │ │ │   └── number-is-nan@1.0.1 </tspan>
<tspan x="10" y="954">      │ │ │ ├─┬ strip-ansi@3.0.1 </tspan>
<tspan x="10" y="970">      │ │ │ │ └── ansi-regex@2.0.0 </tspan>
<tspan x="10" y="986">      │ │ │ ├── supports-color@0.2.0 </tspan>
<tspan x="10" y="1002">      │ │ │ └── wide-align@1.1.0 </tspan>
<tspan x="10" y="1018">      │ │ └── set-blocking@2.0.0 </tspan>
<tspan x="10" y="1034">      │ ├─┬ rc@1.1.6 </tspan>
<tspan x="10" y="1050">      │ │ ├── deep-extend@0.4.1 </tspan>
<tspan x="10" y="1066">      │ │ ├── ini@1.3.4 </tspan>
<tspan x="10" y="1082">      │ │ ├── minimist@1.2.0 </tspan>
<tspan x="10" y="1098">      │ │ └── strip-json-comments@1.0.4 </tspan>
<tspan x="10" y="1114">      │ ├─┬ request@2.79.0 </tspan>
<tspan x="10" y="1130">      │ │ ├── aws-sign2@0.6.0 </tspan>
<tspan x="10" y="1146">      │ │ ├── aws4@1.5.0 </tspan>
<tspan x="10" y="1162">      │ │ ├── caseless@0.11.0 </tspan>
<tspan x="10" y="1178">      │ │ ├─┬ combined-stream@1.0.5 </tspan>
<tspan x="10" y="1194">      │ │ │ └── delayed-stream@1.0.0 </tspan>
<tspan x="10" y="1210">      │ │ ├── extend@3.0.0 </tspan>
<tspan x="10" y="1226">      │ │ ├── forever-agent@0.6.1 </tspan>
<tspan x="10" y="1242">      │ │ ├─┬ form-data@2.1.2 </tspan>
<tspan x="10" y="1258">      │ │ │ └── asynckit@0.4.0 </tspan>
<tspan x="10" y="1274">      │ │ ├─┬ har-validator@2.0.6 </tspan>
<tspan x="10" y="1290">      │ │ │ ├─┬ chalk@1.1.3 </tspan>
<tspan x="10" y="1306">      │ │ │ │ ├── ansi-styles@2.2.1 </tspan>
<tspan x="10" y="1322">      │ │ │ │ ├── escape-string-regexp@1.0.5 </tspan>
<tspan x="10" y="1338">      │ │ │ │ ├─┬ has-ansi@2.0.0 </tspan>
<tspan x="10" y="1354">      │ │ │ │ │ └── ansi-regex@2.0.0 </tspan>
<tspan x="10" y="1370">      │ │ │ │ ├─┬ strip-ansi@3.0.1 </tspan>
<tspan x="10" y="1386">      │ │ │ │ │ └── ansi-regex@2.0.0 </tspan>
<tspan x="10" y="1402">      │ │ │ │ └── supports-color@2.0.0 </tspan>
<tspan x="10" y="1418">      │ │ │ ├─┬ is-my-json-valid@2.15.0 </tspan>
<tspan x="10" y="1434">      │ │ │ │ ├── generate-function@2.0.0 </tspan>
<tspan x="10" y="1450">      │ │ │ │ ├─┬ generate-object-property@1.2.0 </tspan>
<tspan x="10" y="1466">      │ │ │ │ │ └── is-property@1.0.2 </tspan>
<tspan x="10" y="1482">      │ │ │ │ ├── jsonpointer@4.0.0 </tspan>
<tspan x="10" y="1498">      │ │ │ │ └── xtend@4.0.1 </tspan>
<tspan x="10" y="1514">      │ │ │ └─┬ pinkie-promise@2.0.1 </tspan>
<tspan x="10" y="1530">      │ │ │   └── pinkie@2.0.4 </tspan>
<tspan x="10" y="1546">      │ │ ├─┬ hawk@3.1.3 </tspan>
<tspan x="10" y="1562">      │ │ │ ├── boom@2.10.1 </tspan>
<tspan x="10" y="1578">      │ │ │ ├── cryptiles@2.0.5 </tspan>
<tspan x="10" y="1594">      │ │ │ ├── hoek@2.16.3 </tspan>
<tspan x="10" y="1610">      │ │ │ └── sntp@1.0.9 </tspan>
<tspan x="10" y="1626">      │ │ ├─┬ http-signature@1.1.1 </tspan>
<tspan x="10" y="1642">      │ │ │ ├── assert-plus@0.2.0 </tspan>
<tspan x="10" y="1658">      │ │ │ ├─┬ jsprim@1.3.1 </tspan>
<tspan x="10" y="1674">      │ │ │ │ ├── extsprintf@1.0.2 </tspan>
<tspan x="10" y="1690">      │ │ │ │ ├── json-schema@0.2.3 </tspan>
<tspan x="10" y="1706">      │ │ │ │ └── verror@1.3.6 </tspan>
<tspan x="10" y="1722">      │ │ │ └─┬ sshpk@1.10.1 </tspan>
<tspan x="10" y="1738">      │ │ │   ├── asn1@0.2.3 </tspan>
<tspan x="10" y="1754">      │ │ │   ├── assert-plus@1.0.0 </tspan>
<tspan x="10" y="1770">      │ │ │   ├── bcrypt-pbkdf@1.0.0 </tspan>
<tspan x="10" y="1786">      │ │ │   ├── dashdash@1.14.1 </tspan>
<tspan x="10" y="1802">      │ │ │   ├── ecc-jsbn@0.1.1 </tspan>
<tspan x="10" y="1818">      │ │ │   ├── getpass@0.1.6 </tspan>
<tspan x="10" y="1834">      │ │ │   ├── jodid25519@1.0.2 </tspan>
<tspan x="10" y="1850">      │ │ │   ├── jsbn@0.1.0 </tspan>
<tspan x="10" y="1866">      │ │ │   └── tweetnacl@0.14.4 </tspan>
<tspan x="10" y="1882">      │ │ ├── is-typedarray@1.0.0 </tspan>
<tspan x="10" y="1898">      │ │ ├── isstream@0.1.2 </tspan>
<tspan x="10" y="1914">      │ │ ├── json-stringify-safe@5.0.1 </tspan>
<tspan x="10" y="1930">      │ │ ├─┬ mime-types@2.1.13 </tspan>
<tspan x="10" y="1946">      │ │ │ └── mime-db@1.25.0 </tspan>
<tspan x="10" y="1962">      │ │ ├── oauth-sign@0.8.2 </tspan>
<tspan x="10" y="1978">      │ │ ├── qs@6.3.0 </tspan>
<tspan x="10" y="1994">      │ │ ├── stringstream@0.0.5 </tspan>
<tspan x="10" y="2010">      │ │ ├─┬ tough-cookie@2.3.2 </tspan>
<tspan x="10" y="2026">      │ │ │ └── punycode@1.4.1 </tspan>
<tspan x="10" y="2042">      │ │ ├── tunnel-agent@0.4.3 </tspan>
<tspan x="10" y="2058">      │ │ └── uuid@3.0.1 </tspan>
<tspan x="10" y="2074">      │ ├─┬ rimraf@2.5.4 </tspan>
<tspan x="10" y="2090">      │ │ └─┬ glob@7.1.1 </tspan>
<tspan x="10" y="2106">      │ │   ├── fs.realpath@1.0.0 </tspan>
<tspan x="10" y="2122">      │ │   ├─┬ inflight@1.0.6 </tspan>
<tspan x="10" y="2138">      │ │   │ └── wrappy@1.0.2 </tspan>
<tspan x="10" y="2154">      │ │   ├── inherits@2.0.3 </tspan>
<tspan x="10" y="2170">      │ │   ├─┬ minimatch@3.0.3 </tspan>
<tspan x="10" y="2186">      │ │   │ └─┬ brace-expansion@1.1.6 </tspan>
<tspan x="10" y="2202">      │ │   │   ├── balanced-match@0.4.2 </tspan>
<tspan x="10" y="2218">      │ │   │   └── concat-map@0.0.1 </tspan>
<tspan x="10" y="2234">      │ │   ├─┬ once@1.4.0 </tspan>
<tspan x="10" y="2250">      │ │   │ └── wrappy@1.0.2 </tspan>
<tspan x="10" y="2266">      │ │   └── path-is-absolute@1.0.1 </tspan>
<tspan x="10" y="2282">      │ ├── semver@5.3.0 </tspan>
<tspan x="10" y="2298">      │ ├─┬ tar@2.2.1 </tspan>
<tspan x="10" y="2314">      │ │ ├── block-stream@0.0.9 </tspan>
<tspan x="10" y="2330">      │ │ ├─┬ fstream@1.0.10 </tspan>
<tspan x="10" y="2346">      │ │ │ └── graceful-fs@4.1.11 </tspan>
<tspan x="10" y="2362">      │ │ └── inherits@2.0.3 </tspan>
<tspan x="10" y="2378">      │ └─┬ tar-pack@3.3.0 </tspan>
<tspan x="10" y="2394">      │   ├─┬ debug@2.2.0 </tspan>
<tspan x="10" y="2410">      │   │ └── ms@0.7.1 </tspan>
<tspan x="10" y="2426">      │   ├─┬ fstream@1.0.10 </tspan>
<tspan x="10" y="2442">      │   │ ├── graceful-fs@4.1.11 </tspan>
<tspan x="10" y="2458">      │   │ └── inherits@2.0.3 </tspan>
<tspan x="10" y="2474">      │   ├─┬ fstream-ignore@1.0.5 </tspan>
<tspan x="10" y="2490">      │   │ ├── inherits@2.0.3 </tspan>
<tspan x="10" y="2506">      │   │ └─┬ minimatch@3.0.3 </tspan>
<tspan x="10" y="2522">      │   │   └─┬ brace-expansion@1.1.6 </tspan>
<tspan x="10" y="2538">      │   │     ├── balanced-match@0.4.2 </tspan>
<tspan x="10" y="2554">      │   │     └── concat-map@0.0.1 </tspan>
<tspan x="10" y="2570">      │   ├─┬ once@1.3.3 </tspan>
<tspan x="10" y="2586">      │   │ └── wrappy@1.0.2 </tspan>
<tspan x="10" y="2602">      │   ├─┬ readable-stream@2.1.5 </tspan>
<tspan x="10" y="2618">      │   │ ├── buffer-shims@1.0.0 </tspan>
<tspan x="10" y="2634">      │   │ ├── core-util-is@1.0.2 </tspan>
<tspan x="10" y="2650">      │   │ ├── inherits@2.0.3 </tspan>
<tspan x="10" y="2666">      │   │ ├── isarray@1.0.0 </tspan>
<tspan x="10" y="2682">      │   │ ├── process-nextick-args@1.0.7 </tspan>
<tspan x="10" y="2698">      │   │ ├── string_decoder@0.10.31 </tspan>
<tspan x="10" y="2714">      │   │ └── util-deprecate@1.0.2 </tspan>
<tspan x="10" y="2730">      │   └── uid-number@0.0.6 </tspan>
<tspan x="10" y="2746">      └─┬ object.assign@4.0.4 </tspan>
<tspan x="10" y="2762">        ├─┬ define-properties@1.1.2 </tspan>
<tspan x="10" y="2778">        │ └── foreach@2.0.5 </tspan>
<tspan x="10" y="2794">        ├── function-bind@1.1.0 </tspan>
<tspan x="10" y="2810">        └── object-keys@1.0.11</tspan>
</text>
</svg>
